# xmcd
#
# Track frame offsets:
#	183
#	14363
#	29488
#	47265
#	61653
#	77905
#	92368
#	109015
#	125913
#	132373
#	147823
#	161275
#	177980
#	193310
#	206703
#	223200
#	238933
#
# Disc length: 3713 seconds
#
# Revision: 20
# Processed by: cddbd v1.5.2PL0 Copyright (c) Steve Scherf et al.
# Submitted via: audiograbber 1.83.01
#
DISCID=f30e7f11
DTITLE=Jean Michel Jarre - Images
DYEAR=1991
DGENRE=Instrumental
TTITLE0=Oxygene 4
TTITLE1=Equinoxe 5
TTITLE2=Magnetic Fields 2
TTITLE3=Oxygene 2
TTITLE4=Computer Week-End
TTITLE5=Equinoxe 4
TTITLE6=Ethnicolor 1
TTITLE7=London Kid
TTITLE8=Band In The Rain
TTITLE9=Orient Express
TTITLE10=Calypso 1
TTITLE11=Calypso 3
TTITLE12=Rendez-Vous 4
TTITLE13=Moon Machine
TTITLE14=Eldorado
TTITLE15=Globe Trotter
TTITLE16=Rendez-Vous 2
EXTD=
EXTT0=
EXTT1=
EXTT2=
EXTT3=
EXTT4=
EXTT5=
EXTT6=
EXTT7=
EXTT8=
EXTT9=
EXTT10=
EXTT11=
EXTT12=
EXTT13=
EXTT14=
EXTT15=
EXTT16=
PLAYORDER=
